<svg data-v-423bf9ae="" xmlns="http://www.w3.org/2000/svg" viewBox="0 0 197.55394663357546 60" class="font"><!----><!----><defs data-v-423bf9ae=""><linearGradient data-v-423bf9ae="" gradientTransform="rotate(25)" id="65d98892-872f-4793-84f6-6b320d470175" x1="0%" y1="0%" x2="100%" y2="0%"><stop data-v-423bf9ae="" offset="0%" style="stop-color: rgb(0, 102, 120); stop-opacity: 1;"></stop><stop data-v-423bf9ae="" offset="100%" style="stop-color: rgb(79, 168, 255); stop-opacity: 1;"></stop></linearGradient></defs><g data-v-423bf9ae="" id="7f454fd2-e341-4822-80fe-3208f154abe8" fill="url(#65d98892-872f-4793-84f6-6b320d470175)" transform="matrix(4.796162981794198,0,0,4.796162981794198,-8.057552053085118,-18.08153387304742)"><path d="M1.68 13.55L6.62 13.55L6.62 12.98L2.27 12.98L2.27 3.77L1.68 3.77ZM6.86 15.86C7.24 16.14 7.71 16.28 8.25 16.28C9.10 16.28 9.81 15.69 10.26 14.60L13.65 6.26L13.03 6.26L10.42 12.87L7.73 6.26L7.11 6.26L10.12 13.55L9.79 14.38C9.44 15.23 8.88 15.69 8.22 15.69C7.81 15.69 7.43 15.58 7.11 15.36ZM14.28 6.94L15.34 6.94L15.34 11.54C15.34 12.91 15.96 13.58 17.00 13.57C17.54 13.57 18.06 13.37 18.52 13.05L18.30 12.57C17.92 12.84 17.49 12.99 17.07 12.99C16.31 13.01 15.90 12.50 15.90 11.47L15.90 6.94L18.38 6.94L18.38 6.44L15.90 6.44L15.90 4.63L15.34 4.63L15.34 6.44L14.28 6.44ZM19.24 12.56C19.91 13.20 20.89 13.57 21.91 13.57C23.23 13.57 24.44 12.96 24.44 11.61C24.44 9.03 20.19 10.00 20.19 8.04C20.19 7.17 20.99 6.78 22.01 6.78C22.71 6.78 23.35 6.97 23.86 7.29L24.11 6.82C23.53 6.47 22.83 6.24 22.02 6.24C20.73 6.24 19.63 6.80 19.63 8.08C19.63 10.58 23.94 9.65 23.88 11.70C23.84 12.63 22.96 13.03 21.94 13.03C21.01 13.03 20.13 12.70 19.50 12.11ZM25.61 6.94L26.67 6.94L26.67 11.54C26.67 12.91 27.29 13.58 28.32 13.57C28.87 13.57 29.39 13.37 29.85 13.05L29.62 12.57C29.25 12.84 28.81 12.99 28.39 12.99C27.64 13.01 27.23 12.50 27.23 11.47L27.23 6.94L29.71 6.94L29.71 6.44L27.23 6.44L27.23 4.63L26.67 4.63L26.67 6.44L25.61 6.44ZM30.98 11.42C30.98 12.66 31.95 13.57 33.39 13.57C34.65 13.57 35.69 13.12 36.30 12.11L36.32 13.55L36.89 13.55L36.86 8.71C36.85 7.20 35.91 6.24 34.19 6.24C33.08 6.24 32.24 6.65 31.37 7.28L31.65 7.73C32.42 7.14 33.19 6.78 34.10 6.78C35.56 6.78 36.27 7.52 36.29 8.75L36.29 9.46L33.70 9.46C32.02 9.46 30.98 10.21 30.98 11.42ZM31.54 11.41C31.54 10.47 32.33 9.98 33.75 9.98L36.30 9.98L36.30 11.17C35.85 12.45 34.83 13.03 33.47 13.03C32.28 13.03 31.54 12.38 31.54 11.41ZM39.56 13.55L40.15 13.55L40.15 9.60C40.28 7.91 41.26 6.85 42.87 6.85L42.87 6.24C41.57 6.27 40.61 6.92 40.15 8.09L40.15 6.26L39.56 6.26Z"></path></g><!----><!----></svg>